<svg version="1.1" preserveAspectRatio="none" xmlns="http://www.w3.org/2000/svg" width="500" height="500" viewBox="0 0 500 500"><rect width="100%" height="100%" fill="#14051E" fill-opacity="1"/><svg viewBox="-82.1522 -160.0079 164.3044 160.0079" width="333" height="324.2921717251638" x="83.5px" y="87.8539px" xmlns="http://www.w3.org/2000/svg" xmlns:xlink="http://www.w3.org/1999/xlink" preserveAspectRatio="none"><defs></defs><style>.companyName {fill:#E93232;fill-opacity:1;}.icon1 {fill:#907DB3;fill-opacity:1;}.icon2 {fill:#D6C7F4;fill-opacity:1;}.icon3 {fill:#6A588A;fill-opacity:1;}.icon3-str {stroke:#6A588A;stroke-opacity:1;}</style><g opacity="1" transform="rotate(0 53.6061 312.1522)">
<svg width="0" height="0" x="53.6061" y="312.1522" version="1.1" preserveAspectRatio="none" viewBox="0 0 0 0">
  <g transform="matrix(1 0 0 1 0 0)" class="companyName"></g>
</svg>
</g><g opacity="1" transform="rotate(0 -82.1522 -160.0079)">
<svg width="164.3044" height="160.0079" x="-82.1522" y="-160.0079" version="1.1" preserveAspectRatio="none" viewBox="86.44353485107422 62.78300857543945 165.75640869140625 161.42193603515625">
  <g transform="matrix(1 0 0 1 0 0)" class="icon1"><switch><g><g><g enable-background="new    "><g enable-background="new    "><g><g><path d="M251.222,135.877c0.589,3.457,0.943,6.711,0.822,10.219c0.047-2.457,0.134-4.914,0.092-7.371         c-0.037-2.225-0.303-4.473-0.515-6.688c-0.313-3.273-0.931-6.474-1.627-9.685c0.394,2.189,0.898,4.31,0.999,6.541         C251.098,131.219,251.042,133.554,251.222,135.877"></path></g></g></g><g enable-background="new    "><g><path d="M210.096,106.884c-0.68-4.711-7.194-21.963-10.069-27.607        c-0.327-0.642-0.898-2.44-1.386-2.97c-0.452,0.379-20.729,13.922-25.643,15.062c2.743,0.923,5.447,1.962,8.156,2.981        c-7.374,11.935-21.006,19.913-34.685,22.167c-7.397,1.219-15.553,0.8-22.13-3.126c-5.884-3.512-9.208-9.649-8.378-16.516        c0.834-6.895,5.114-13.014,10.365-17.402c0.425-0.62,0.906-1.194,1.453-1.694c0.082-0.075,0.17-0.152,0.254-0.228        c0.084-0.089,0.159-0.185,0.246-0.272c0.454-0.451,0.94-0.847,1.444-1.213c0.065-0.079,0.135-0.155,0.201-0.233        c0.393-0.552,0.836-1.069,1.329-1.544c4.019-4.509,8.893-8.627,14.307-11.506c-12.457,3.531-24.256,9.967-33.175,19.45        c-9.297,9.885-16.333,24.473-11.992,38.165c3.572,11.267,14.069,17.952,25.11,20.522c13.645,3.176,28.359,1.058,41.239-4.118        c15.121-6.077,28.214-16.807,36.865-30.646c2.367,1.591,4.67,3.276,6.984,4.943        C210.459,109.69,210.298,108.284,210.096,106.884z"></path><path d="M241.726,181.57c-1.879,3.132-3.748,6.226-5.927,9.159        c-2.079,2.797-4.35,5.472-6.762,7.985c-4.917,5.123-10.477,9.527-16.51,13.256c-12.322,7.614-26.784,11.861-41.266,12.212        c-11.885,0.288-23.548-2.148-34.525-6.63c18.392,6.924,38.868,6.113,57.286-0.273c17.313-6.005,33.477-16.877,44.473-31.663        c2.513-3.379,4.744-6.975,6.586-10.764C243.989,177.102,242.966,179.395,241.726,181.57"></path><path d="M239.938,102.011c2.239,13.193-1.264,26.405-8.51,37.512        c-7.77,11.912-19.103,21.271-31.334,28.33c-12.955,7.476-27.355,12.637-42.13,14.992c-13.519,2.155-27.854,2.042-40.896-2.5        c-7.197-2.507-13.943-6.461-19.3-11.923c-5.598-5.707-9.296-12.97-10.681-20.835c-1.195-6.786-0.535-13.561,0.436-20.342        c0.852-4.061,1.707-8.087,3.024-12.026c1.299-3.881,2.852-7.755,4.73-11.399c0.98-1.902,2.046-3.747,3.123-5.595        c-7.675,13.615-11.503,30.877-2.284,44.745c8.496,12.779,24.441,18.172,39.136,18.972c19.8,1.078,39.768-5.347,56.318-15.997        c15.742-10.129,31.036-25.818,33.433-45.222c0.493-3.996,0.379-8.059-0.366-12.016c4.386,2.955,8.754,6.11,12.486,9.88        C238.098,99.57,239.348,100.719,239.938,102.011"></path><path d="M249.994,122.352c0.796,4.135,1.618,8.252,1.924,12.458        c0.34,4.676,0.502,9.517-0.28,14.154c-1.144,6.784-3.577,13.306-6.95,19.292c-7.14,12.672-18.208,22.854-30.477,30.479        c-12.905,8.021-27.499,13.491-42.511,15.861c-14.104,2.228-28.997,1.735-42.465-3.332c-6.354-2.391-12.318-5.824-17.44-10.294        c-3.618-3.157-6.673-7.024-9.495-10.89c-2.529-3.464-4.698-7.117-6.733-10.89c-1.711-3.17-3.112-6.573-4.374-9.947        c5.039,11.916,14.508,21.071,26.343,26.18c12.438,5.367,26.435,6.424,39.797,5.104c14.747-1.458,29.231-5.825,42.492-12.402        c12.989-6.442,25.103-15.167,34.43-26.341c10.226-12.249,17.791-28.605,14.146-44.809        C248.938,118.764,249.599,120.524,249.994,122.352"></path></g></g></g></g></g></switch></g>
</svg>
</g></svg></svg>